<?xml version="1.0" encoding="UTF-8"?>
<svg id="Layer_2" data-name="Layer 2" xmlns="http://www.w3.org/2000/svg" viewBox="0 0 90.43 25.3">
  <defs>
    <style>
      .cls-1 {
        fill: #231f20;
      }
    </style>
  </defs>
  <g id="Layer_1-2" data-name="Layer 1">
    <path class="cls-1" d="M24.47,8.15c-.12-.1-.4-.15-.83-.16-.38.01-.65.06-.82.14-.16.08-.24.35-.24.79,0,.28.05.52.15.72.18.14.49.21.91.21.44,0,.71-.07.83-.18.12-.11.18-.36.2-.75-.01-.41-.08-.67-.2-.77"/>
    <path class="cls-1" d="M24.76,12.56v6.66c-.21.04-.49.07-.84.07s-.64-.02-.84-.07v-5.98c0-.3-.05-.52-.16-.65-.11-.13-.29-.2-.55-.2h-.18c-.05-.24-.08-.44-.08-.6s.03-.37.08-.62c.36-.04.7-.06,1.03-.06h.23c.41,0,.74.13.97.39.23.26.35.62.35,1.06"/>
    <path class="cls-1" d="M27.28,18.81V7.31l.1-.1h.64c.34,0,.57.08.71.25.14.17.21.44.21.83v3.56c.65-.55,1.4-.83,2.25-.83s1.54.38,2.02,1.13c.47.75.71,1.8.71,3.14,0,.63-.09,1.2-.28,1.7-.19.5-.44.93-.77,1.28-.33.35-.71.62-1.15.81-.44.19-.92.28-1.43.28-1.04,0-2.05-.18-3-.54M30.71,12.43c-.65,0-1.25.31-1.78.93v4.54c.4.13.87.19,1.4.19s.99-.26,1.34-.77c.35-.51.52-1.24.52-2.17s-.13-1.64-.4-2.07c-.27-.43-.63-.65-1.09-.65"/>
    <path class="cls-1" d="M42.15,18.47c-.13.39-.34.68-.64.86-.64-.12-1.08-.46-1.31-1.01-.77.74-1.57,1.11-2.38,1.11-.41,0-.78-.07-1.09-.2-.31-.13-.57-.31-.78-.53-.21-.22-.37-.48-.47-.77-.1-.29-.16-.59-.16-.91,0-.89.29-1.57.86-2.02.57-.46,1.33-.69,2.28-.69.27,0,.54,0,.8.02.26.02.52.05.77.09v-.64c0-.98-.45-1.46-1.34-1.46-.62,0-1.48.21-2.56.64-.32-.27-.48-.68-.49-1.23,1.11-.5,2.24-.75,3.38-.75.85,0,1.51.22,1.97.68.47.45.7,1.13.7,2.05v3.35c0,.67.15,1.14.46,1.4M38.1,18.09c.7,0,1.34-.33,1.93-.98v-1.55c-.22-.02-.45-.04-.68-.05-.24-.01-.49-.02-.75-.02-.5,0-.89.12-1.17.37-.28.25-.41.57-.41.97s.1.7.29.92c.2.22.46.33.8.33"/>
    <path class="cls-1" d="M7.4,25.3l-.62-6.43-6.78-1.52,6.2-6.19-.27-3.6,3.49-2.51L7.57,0l7.12,1.78,3.53,7.5-2.17,8.7-.04.03-8.61,7.29ZM6.66,8.56l.71,9.63,7.78-.69L6.66,8.56ZM7.45,18.88l.48,5.08,6.81-5.77-7.29.68ZM1.29,16.98l5.43,1.2-.45-6.15-4.97,4.96ZM6.81,7.73l8.81,9.31,1.92-7.7-3.2-6.81-4.34,2.9-3.18,2.3ZM8.6.92l1.37,3.75,3.71-2.48-5.08-1.27Z"/>
    <rect class="cls-1" x="50.28" y="11.37" width=".37" height="2.83"/>
    <path class="cls-1" d="M52.84,14.25l-.75-1.54c-.18-.38-.32-.76-.32-.76,0,0,.06.55.06.85v1.45h-.36v-2.83h.36l.71,1.48c.23.47.32.79.32.79,0,0-.06-.57-.06-.88v-1.39h.36v2.83h-.32Z"/>
    <path class="cls-1" d="M54.4,14.25h-.43v-2.83h.47c.72,0,1.22.16,1.22,1.41s-.54,1.42-1.27,1.42M54.5,11.74h-.17v2.19h.13c.52,0,.84-.12.84-1.1s-.32-1.09-.8-1.09"/>
    <path class="cls-1" d="M57.16,14.29c-.57,0-.82-.24-.82-.81v-2.06h.36v2.12c0,.32.14.44.46.44.29,0,.46-.12.46-.44v-2.12h.36v2.06c0,.55-.27.81-.82.81"/>
    <path class="cls-1" d="M59.13,14.29c-.27,0-.53-.08-.53-.08v-.33s.31.1.53.1c.27,0,.5-.08.5-.45,0-.25-.14-.38-.33-.5l-.29-.2c-.23-.16-.43-.37-.43-.7,0-.57.45-.74.82-.74.29,0,.48.09.48.09v.32s-.25-.1-.48-.1c-.28,0-.47.1-.47.4,0,.21.15.33.32.45l.23.16c.26.18.51.38.51.79,0,.68-.41.8-.85.8"/>
    <polygon class="cls-1" points="61.84 11.76 61.19 11.76 61.19 14.25 60.83 14.25 60.83 11.76 60.14 11.76 60.14 11.42 61.88 11.42 61.84 11.76"/>
    <path class="cls-1" d="M63.42,14.25l-.21-.64c-.07-.23-.16-.44-.3-.56-.12.02-.23.02-.36.03v1.17h-.36v-2.83h.6c.55,0,1.02.1,1.02.8,0,.44-.23.66-.56.76.12.1.2.25.28.46l.31.81h-.44ZM62.73,11.74h-.16v1.04c.66-.02.89-.15.89-.57,0-.45-.26-.47-.73-.47"/>
    <rect class="cls-1" x="64.43" y="11.42" width=".37" height="2.83"/>
    <polygon class="cls-1" points="65.61 14.25 65.61 11.42 66.98 11.42 66.98 11.76 65.97 11.76 65.97 12.55 66.9 12.55 66.9 12.86 65.97 12.86 65.97 13.91 66.98 13.91 66.98 14.25 65.61 14.25"/>
    <path class="cls-1" d="M68.54,14.25h-.45l-.74-2.83h.42l.41,1.9c.06.29.14.75.14.75,0,0,.08-.46.14-.75l.4-1.9h.42l-.74,2.83Z"/>
    <polygon class="cls-1" points="69.73 14.25 69.73 11.42 71.11 11.42 71.11 11.76 70.09 11.76 70.09 12.55 71.02 12.55 71.02 12.86 70.09 12.86 70.09 13.91 71.11 13.91 71.11 14.25 69.73 14.25"/>
    <path class="cls-1" d="M72.89,14.25l-.21-.64c-.07-.23-.16-.44-.3-.56-.12.02-.23.02-.36.03v1.17h-.36v-2.83h.6c.55,0,1.02.1,1.02.8,0,.44-.23.66-.55.76.12.1.2.25.28.46l.31.81h-.44ZM72.2,11.74h-.16v1.04c.66-.02.89-.15.89-.57,0-.45-.26-.47-.73-.47"/>
    <path class="cls-1" d="M74.37,14.25h-.47v-2.83h.51c.69,0,1.07.11,1.07.74,0,.36-.24.57-.49.62.3.04.57.21.57.66,0,.75-.44.81-1.19.81M74.4,11.71h-.14v.94h.15c.5,0,.7-.08.7-.49s-.22-.45-.71-.45M74.41,12.93h-.15v1.02h.18c.51,0,.75-.07.75-.51s-.29-.51-.78-.51"/>
    <path class="cls-1" d="M77.46,14.25l-.15-.63h-.93l-.15.63h-.4l.78-2.83h.46l.78,2.83h-.4ZM76.99,12.27c-.07-.27-.15-.63-.15-.63,0,0-.08.35-.15.63l-.25,1.03h.79l-.25-1.03Z"/>
    <path class="cls-1" d="M79.72,14.25l-.75-1.54c-.18-.38-.32-.76-.32-.76,0,0,.06.55.06.85v1.45h-.36v-2.83h.36l.71,1.48c.23.47.32.79.32.79,0,0-.06-.57-.06-.88v-1.39h.36v2.83h-.32Z"/>
    <path class="cls-1" d="M81.28,14.25h-.43v-2.83h.47c.72,0,1.23.16,1.23,1.41s-.54,1.42-1.27,1.42M81.38,11.74h-.16v2.19h.13c.52,0,.84-.12.84-1.1s-.32-1.09-.8-1.09"/>
    <path class="cls-1" d="M50.76,19.1h-.47v-2.83h.51c.69,0,1.06.11,1.06.74,0,.36-.24.57-.48.62.3.04.57.21.57.66,0,.75-.44.81-1.18.81M50.79,16.56h-.14v.94h.15c.5,0,.7-.08.7-.49s-.22-.45-.71-.45M50.8,17.78h-.15v1.02h.18c.51,0,.75-.06.75-.51s-.29-.51-.78-.51"/>
    <path class="cls-1" d="M53.43,19.14c-.58,0-.82-.24-.82-.81v-2.06h.36v2.12c0,.31.15.44.46.44.29,0,.46-.12.46-.44v-2.12h.36v2.06c0,.56-.27.81-.82.81M52.97,16.11c-.13,0-.24-.11-.24-.24s.1-.24.24-.24.24.11.24.24-.1.24-.24.24M53.9,16.11c-.13,0-.24-.11-.24-.24s.1-.24.24-.24.24.11.24.24-.1.24-.24.24"/>
    <path class="cls-1" d="M56.26,19.1l-.21-.64c-.07-.23-.16-.44-.3-.56-.12.02-.23.02-.36.03v1.17h-.36v-2.83h.6c.55,0,1.02.1,1.02.8,0,.44-.23.66-.55.76.12.11.2.25.28.46l.31.81h-.44ZM55.56,16.59h-.16v1.03c.66-.02.89-.15.89-.56,0-.45-.26-.47-.73-.47"/>
    <path class="cls-1" d="M57.99,19.14c-.36,0-.91-.09-.91-1.46s.58-1.46.91-1.46.91.1.91,1.46-.55,1.46-.91,1.46M57.99,16.51c-.28,0-.55.2-.55,1.17s.3,1.17.55,1.17.55-.19.55-1.17-.26-1.17-.55-1.17"/>
    <path class="cls-1" d="M61.52,19.14c-.58,0-.82-.24-.82-.81v-2.06h.36v2.12c0,.31.14.44.46.44.29,0,.46-.12.46-.44v-2.12h.36v2.06c0,.55-.27.81-.82.81"/>
    <path class="cls-1" d="M64.51,19.1l-.75-1.54c-.18-.38-.32-.76-.32-.76,0,0,.06.55.06.85v1.45h-.36v-2.83h.36l.71,1.48c.23.47.32.79.32.79,0,0-.06-.57-.06-.88v-1.39h.36v2.83h-.32Z"/>
    <path class="cls-1" d="M66.07,19.1h-.43v-2.83h.47c.72,0,1.22.16,1.22,1.42s-.54,1.42-1.27,1.42M66.16,16.59h-.17v2.19h.13c.52,0,.84-.12.84-1.1s-.32-1.1-.8-1.1"/>
    <path class="cls-1" d="M70.45,19.1l-.15-.63h-.93l-.15.63h-.39l.78-2.83h.46l.78,2.83h-.4ZM69.98,17.12c-.06-.27-.14-.63-.14-.63,0,0-.08.35-.15.63l-.25,1.03h.79l-.25-1.03Z"/>
    <path class="cls-1" d="M72.56,19.1l-.21-.64c-.07-.23-.16-.44-.3-.56-.12.02-.23.02-.35.03v1.17h-.36v-2.83h.59c.55,0,1.02.1,1.02.8,0,.44-.23.66-.55.76.12.11.2.25.28.46l.31.81h-.44ZM71.86,16.59h-.16v1.03c.66-.02.89-.15.89-.56,0-.45-.26-.47-.73-.47"/>
    <path class="cls-1" d="M74.03,19.1h-.47v-2.83h.51c.69,0,1.06.11,1.06.74,0,.36-.24.57-.48.62.3.04.57.21.57.66,0,.75-.44.81-1.19.81M74.06,16.56h-.14v.94h.15c.5,0,.7-.08.7-.49s-.22-.45-.71-.45M74.07,17.78h-.15v1.02h.18c.51,0,.75-.06.75-.51s-.3-.51-.78-.51"/>
    <polygon class="cls-1" points="75.9 19.1 75.9 16.27 77.28 16.27 77.28 16.61 76.27 16.61 76.27 17.4 77.2 17.4 77.2 17.72 76.27 17.72 76.27 18.76 77.28 18.76 77.28 19.1 75.9 19.1"/>
    <rect class="cls-1" x="77.84" y="16.27" width=".37" height="2.83"/>
    <polygon class="cls-1" points="80.32 16.61 79.67 16.61 79.67 19.1 79.31 19.1 79.31 16.61 78.62 16.61 78.62 16.27 80.36 16.27 80.32 16.61"/>
    <path class="cls-1" d="M81.04,19.14c-.27,0-.53-.09-.53-.09v-.33s.32.1.53.1c.27,0,.5-.08.5-.45,0-.25-.14-.38-.33-.5l-.29-.2c-.23-.16-.43-.37-.43-.7,0-.57.45-.74.82-.74.29,0,.49.09.49.09v.32s-.26-.1-.49-.1c-.28,0-.47.1-.47.4,0,.21.15.33.32.45l.23.16c.25.18.51.38.51.79,0,.68-.41.8-.85.8"/>
    <path class="cls-1" d="M84.68,19.1h-.47l-.4-1.92c-.06-.29-.13-.72-.13-.72,0,0-.07.43-.13.72l-.4,1.92h-.47l-.53-2.83h.42l.26,1.91c.03.24.09.72.09.72,0,0,.07-.48.12-.72l.4-1.91h.5l.4,1.91c.05.25.12.72.12.72,0,0,.06-.48.09-.72l.25-1.91h.42l-.53,2.83Z"/>
    <polygon class="cls-1" points="85.7 19.1 85.7 16.27 87.07 16.27 87.07 16.61 86.06 16.61 86.06 17.4 86.99 17.4 86.99 17.72 86.06 17.72 86.06 18.76 87.07 18.76 87.07 19.1 85.7 19.1"/>
    <polygon class="cls-1" points="88.81 19.1 87.64 19.1 87.64 16.27 88 16.27 88 18.76 88.85 18.76 88.81 19.1"/>
    <polygon class="cls-1" points="90.39 16.61 89.74 16.61 89.74 19.1 89.38 19.1 89.38 16.61 88.69 16.61 88.69 16.27 90.43 16.27 90.39 16.61"/>
    <rect class="cls-1" x="46.38" y="10.52" width=".25" height="9.46"/>
  </g>
</svg>